<?xml version="1.0" encoding="UTF-8" standalone="no"?>
<!-- Created with Inkscape (http://www.inkscape.org/) -->

<svg
   width="88.635406mm"
   height="88.68129mm"
   viewBox="0 0 88.635406 88.68129"
   version="1.1"
   id="svg1"
   xml:space="preserve"
   inkscape:version="1.3.2 (091e20e, 2023-11-25, custom)"
   sodipodi:docname="EthSwitch.svg"
   xmlns:inkscape="http://www.inkscape.org/namespaces/inkscape"
   xmlns:sodipodi="http://sodipodi.sourceforge.net/DTD/sodipodi-0.dtd"
   xmlns="http://www.w3.org/2000/svg"
   xmlns:svg="http://www.w3.org/2000/svg"><sodipodi:namedview
     id="namedview1"
     pagecolor="#ffffff"
     bordercolor="#000000"
     borderopacity="0.25"
     inkscape:showpageshadow="2"
     inkscape:pageopacity="0.0"
     inkscape:pagecheckerboard="0"
     inkscape:deskcolor="#d1d1d1"
     inkscape:document-units="mm"
     inkscape:zoom="3.2409232"
     inkscape:cx="63.099305"
     inkscape:cy="269.52197"
     inkscape:window-width="3840"
     inkscape:window-height="2054"
     inkscape:window-x="-11"
     inkscape:window-y="-11"
     inkscape:window-maximized="1"
     inkscape:current-layer="layer1" /><defs
     id="defs1"><linearGradient
       id="swatch1"
       inkscape:swatch="solid"><stop
         style="stop-color:#ffffff;stop-opacity:1;"
         offset="0"
         id="stop1" /></linearGradient></defs><g
     inkscape:label="Layer 1"
     inkscape:groupmode="layer"
     id="layer1"
     transform="translate(-68.880613,-71.467979)"><path
       style="fill:#000000"
       d="m 76.08943,159.95073 c -2.741601,-0.65249 -5.216478,-2.74105 -6.504918,-5.48954 l -0.703899,-1.50155 V 115.78568 78.611729 l 0.740702,-1.5875 c 0.964201,-2.06651 2.763274,-3.87413 4.78634,-4.80909 l 1.616708,-0.74716 h 37.173957 37.17395 l 1.61671,0.74716 c 2.02307,0.93496 3.82214,2.74258 4.78634,4.80909 l 0.7407,1.5875 v 37.179521 37.17952 l -0.85987,1.74666 c -1.01943,2.07075 -2.68004,3.69655 -4.78233,4.68206 l -1.50155,0.7039 -36.64479,0.0419 c -20.765289,0.0237 -37.075202,-0.0606 -37.63805,-0.19453 z m 73.98756,-3.21181 c 1.45332,-0.4294 3.64517,-2.62125 4.07456,-4.07456 0.45977,-1.5561 0.46669,-72.184601 0.007,-73.718151 -0.173,-0.57741 -0.82924,-1.6223 -1.45832,-2.32199 -2.05102,-2.28122 1.07918,-2.11353 -39.45243,-2.11353 -27.36553,0 -36.096846,0.0761 -36.928387,0.32176 -1.453313,0.4294 -3.645163,2.62125 -4.074558,4.07456 -0.466031,1.57731 -0.466031,72.180041 0,73.757351 0.398204,1.34775 2.612935,3.64109 3.911569,4.05042 1.395831,0.43996 72.434456,0.46316 73.920336,0.0241 z m -64.356504,-7.36739 c -2.354325,-0.47029 -4.583759,-2.32162 -5.699419,-4.73282 -0.555204,-1.19992 -0.557121,-1.29922 -0.557121,-28.85303 V 88.136719 l 0.735484,-1.49768 c 0.846967,-1.7247 2.37148,-3.21054 4.126921,-4.02223 l 1.223011,-0.5655 h 27.648958 27.64895 l 1.49769,0.73549 c 1.7247,0.84696 3.21054,2.37147 4.02223,4.12691 l 0.5655,1.22301 v 27.648961 27.64896 l -0.5655,1.22301 c -0.81169,1.75544 -2.29753,3.27996 -4.02223,4.12692 l -1.49769,0.73549 -26.9875,0.0408 c -14.843116,0.0224 -27.505798,-0.0628 -28.139284,-0.1893 z m 54.591654,-3.18929 c 1.34871,-0.37443 2.9083,-1.93402 3.28273,-3.28273 0.41097,-1.48031 0.41097,-52.747341 0,-54.227651 -0.37443,-1.34872 -1.93402,-2.9083 -3.28273,-3.28273 -1.48031,-0.41097 -52.747335,-0.41097 -54.227646,0 -1.348711,0.37443 -2.908295,1.93401 -3.282728,3.28273 -0.402503,1.44982 -0.411702,52.744771 -0.0097,54.192451 0.370225,1.33331 1.699812,2.74812 3.021898,3.2156 0.884208,0.31264 5.367937,0.37588 27.252076,0.38435 18.32833,0.007 26.50976,-0.0776 27.24612,-0.28202 z m -51.518306,-4.88157 c -1.592059,-0.86384 -1.52468,0.26373 -1.52468,-25.51499 0,-20.554261 0.05142,-23.673621 0.401354,-24.350321 0.854979,-1.65335 -0.349721,-1.57884 25.527812,-1.57884 25.87753,0 24.67283,-0.0745 25.52781,1.57884 0.34994,0.6767 0.40135,3.79606 0.40135,24.350321 0,25.87754 0.0745,24.67284 -1.57884,25.52782 -1.15872,0.59919 -47.649388,0.58697 -48.754806,-0.0128 z M 111.61082,115.78568 V 93.031519 H 101.02749 90.444154 v 22.754161 22.75417 h 10.583336 10.58333 z m -15.400836,19.24844 c -0.78732,-0.61891 -0.82797,-1.45618 -0.10574,-2.17841 0.65532,-0.65532 0.73215,-0.66586 4.852346,-0.66586 4.67387,0 5.36256,0.20054 5.36256,1.5615 0,1.45735 -0.51564,1.6135 -5.32807,1.6135 -3.087516,0 -4.483186,-0.0965 -4.781096,-0.33073 z M 135.95248,115.78568 V 93.031519 h -10.58333 -10.58333 v 22.754161 22.75417 h 10.58333 10.58333 z M 120.51536,134.881 c -0.62497,-0.6906 -0.55275,-1.78694 0.15016,-2.27927 0.47207,-0.33065 1.41365,-0.41188 4.77453,-0.41188 4.12019,0 4.19703,0.0105 4.85235,0.66586 0.48567,0.48567 0.61839,0.82578 0.49042,1.25677 -0.3423,1.15294 -0.77286,1.25237 -5.42323,1.25237 -3.93277,0 -4.4534,-0.052 -4.84423,-0.48385 z"
       id="path1" /><path
       d="m 100.04964,123.90965 2.57074,-3.43303 3.07467,-4.09149 3.07467,-4.0915 -0.0882,-0.0888 -0.0882,-0.0888 -3.42785,0.18496 -3.42785,0.18495 -0.0391,-0.048 -0.0391,-0.048 2.16959,-5.87429 2.16958,-5.87427 0.30439,-0.801042 0.30438,-0.80104 -3.29069,0.002 -3.29069,0.002 -2.993392,8.122912 -2.993403,8.1229 6.18e-4,0.19073 6.1e-4,0.19072 h 2.954905 2.9549 v 0.1556 0.1556 l -1.43957,5.79195 -1.43957,5.79194 v 0.11201 0.11201 l 0.20393,-0.22342 0.20391,-0.22342 z"
       style="fill:none;fill-opacity:1;stroke:#000000;stroke-width:1.362;stroke-opacity:1;stroke-dasharray:none"
       id="path1-4" /><path
       style="fill:#000000;stroke-width:0.567;stroke-dasharray:none"
       d="m 117.49673,120.94296 c -0.50535,-0.0672 -1.02752,-0.34629 -1.30679,-0.69838 l -0.24178,-0.30484 v -6.39257 -6.39259 l 0.24178,-0.30483 c 0.14987,-0.18893 0.39045,-0.37647 0.63285,-0.49328 l 0.39107,-0.18846 h 8.20122 8.20121 l 0.39108,0.18846 c 0.24237,0.11679 0.483,0.30436 0.63285,0.49326 l 0.24178,0.30481 0.0238,6.26317 c 0.0159,4.20205 -0.003,6.33673 -0.0592,6.48666 -0.1384,0.37254 -0.51341,0.71341 -0.98111,0.89178 l -0.4291,0.16363 -7.79825,0.0144 c -4.28904,0.008 -7.95262,-0.006 -8.1413,-0.0312 z m 16.07264,-0.57932 c 0.1305,-0.0526 0.34441,-0.21093 0.47537,-0.35182 l 0.23809,-0.2562 v -6.18976 c 0,-6.90799 0.0435,-6.3965 -0.57408,-6.74523 l -0.32868,-0.18559 h -7.95843 -7.95844 l -0.28999,0.1536 c -0.1595,0.0845 -0.36557,0.24891 -0.45793,0.36541 -0.16772,0.21152 -0.16795,0.22033 -0.16795,6.39312 0,6.17278 2.3e-4,6.18159 0.16795,6.39311 0.0924,0.1165 0.29843,0.28093 0.45793,0.36541 l 0.28999,0.1536 h 7.93445 c 6.97895,0 7.96301,-0.0115 8.17172,-0.0957 z m -11.13338,-1.4767 c -0.11077,-0.0646 -0.13728,-0.21624 -0.15508,-0.88737 l -0.0215,-0.80953 -0.77531,-0.0311 c -0.42642,-0.0171 -0.81174,-0.0596 -0.85629,-0.0945 -0.0446,-0.0349 -0.0911,-0.42718 -0.10348,-0.8718 l -0.0225,-0.80838 -0.94167,-0.0175 -0.94164,-0.0176 -0.0832,-0.16925 c -0.13143,-0.26714 -0.0622,-6.83272 0.0732,-6.93818 0.15312,-0.11931 13.46006,-0.11931 13.6132,0 0.13123,0.10225 0.19648,6.68396 0.0689,6.9456 -0.0781,0.16013 -0.0889,0.16202 -1.0206,0.1794 l -0.94165,0.0175 -0.0225,0.80838 c -0.0124,0.44462 -0.0589,0.83693 -0.10349,0.87181 -0.0446,0.0349 -0.42988,0.0774 -0.85629,0.0945 l -0.7753,0.0311 -0.0214,0.80952 c -0.0178,0.67113 -0.0444,0.82283 -0.15508,0.88737 -0.10101,0.0588 -0.82721,0.0778 -2.97908,0.0778 -2.15188,0 -2.87806,-0.019 -2.97909,-0.0778 z m 5.45567,-1.2491 c 0,-0.51635 0.0325,-0.80034 0.0999,-0.8702 0.0785,-0.0816 0.26173,-0.10739 0.85881,-0.12089 l 0.75896,-0.0171 0.0399,-0.82755 c 0.031,-0.64316 0.0666,-0.84065 0.15978,-0.8864 0.0659,-0.0323 0.50629,-0.0593 0.97864,-0.0598 l 0.85882,-9.4e-4 V 111.77244 108.69 h -0.83884 -0.83885 v 1.51319 c 0,1.09391 -0.0266,1.5339 -0.0959,1.58793 -0.13833,0.10781 -8.77736,0.10781 -8.91569,0 -0.0693,-0.054 -0.0959,-0.49402 -0.0959,-1.58793 V 108.69 h -0.83884 -0.83883 v 3.08244 3.08243 h 0.91401 c 0.64348,0 0.93314,0.0231 0.97864,0.0778 0.0355,0.0428 0.0826,0.44213 0.10459,0.88737 l 0.0399,0.80952 0.75895,0.0171 c 0.59708,0.0135 0.78026,0.0393 0.85882,0.12088 0.0672,0.0699 0.0999,0.35385 0.0999,0.87021 v 0.76649 h 2.47658 2.47658 z m -5.03305,-7.60901 v -1.33884 h -0.67907 -0.67906 v 1.33884 1.33884 h 0.67906 0.67907 z m 2.15702,0 v -1.33884 h -0.75896 -0.75895 v 1.33884 1.33884 h 0.75895 0.75896 z m 2.15702,0 v -1.33884 h -0.75896 -0.75894 v 1.33884 1.33884 h 0.75894 0.75896 z m 2.15702,0 v -1.33884 h -0.75895 -0.75895 v 1.33884 1.33884 h 0.75895 0.75895 z"
       id="path1-1" /></g></svg>
